<?xml version="1.0" standalone="no"?>
<!DOCTYPE svg PUBLIC "-//W3C//DTD SVG 20010904//EN"
 "http://www.w3.org/TR/2001/REC-SVG-20010904/DTD/svg10.dtd">
<svg version="1.0" xmlns="http://www.w3.org/2000/svg"
 width="200.000000pt" height="200.000000pt" viewBox="0 0 200.000000 200.000000"
 preserveAspectRatio="xMidYMid meet">
<metadata>
Created by potrace 1.11, written by Peter Selinger 2001-2013
</metadata>
<g transform="translate(0.000000,200.000000) scale(0.100000,-0.100000)"
fill="#000000" stroke="none">
<path d="M223 1555 c-67 -19 -78 -47 -81 -213 -2 -81 0 -157 3 -169 5 -20 15
-25 85 -37 76 -12 101 -19 107 -29 6 -9 8 -61 3 -69 0 -2 -4 -34 -6 -73 -3
-38 -10 -75 -16 -82 -12 -14 -112 -48 -190 -63 -32 -6 -59 -16 -59 -21 -1 -5
-2 -15 -3 -21 -1 -7 3 -26 10 -43 13 -34 12 -133 -2 -143 -21 -15 -10 -29 34
-45 26 -9 57 -18 68 -20 23 -3 56 -31 48 -40 -3 -3 10 -17 30 -32 63 -48 167
-25 196 45 l10 25 233 2 c929 6 881 7 892 -13 34 -64 84 -95 140 -87 40 6 89
45 105 82 7 17 19 31 27 31 8 0 21 7 29 15 9 8 24 15 35 15 10 0 19 4 19 9 0
13 -26 32 -34 24 -3 -4 -3 9 0 28 4 19 12 39 18 44 15 13 14 31 -1 46 -17 17
-16 34 1 48 16 14 13 45 -5 68 -10 11 -12 95 -11 331 1 197 -2 329 -9 349 -8
24 -18 34 -42 39 -50 12 -1592 11 -1634 -1z"/>
</g>
</svg>
